<mxfile host="app.diagrams.net" modified="2023-04-29T08:01:23.832Z" agent="Mozilla/5.0 (Macintosh; Intel Mac OS X 10.15; rv:109.0) Gecko/20100101 Firefox/112.0" etag="fZWemshS5dGpVVJkU1HN" version="21.2.3" type="github">
  <diagram name="Page-1" id="aFlcmsHGE13Q4VAD2MSZ">
    <mxGraphModel dx="1081" dy="725" grid="1" gridSize="10" guides="1" tooltips="1" connect="1" arrows="1" fold="1" page="1" pageScale="1" pageWidth="850" pageHeight="1100" math="0" shadow="0">
      <root>
        <mxCell id="0" />
        <mxCell id="1" parent="0" />
        <mxCell id="CqbCbA0BcGecOo9J1HXa-53" value="" style="edgeStyle=orthogonalEdgeStyle;rounded=0;orthogonalLoop=1;jettySize=auto;html=1;endArrow=none;endFill=0;" edge="1" parent="1" source="JOHRK77XorqaOlhDgyeb-2" target="CqbCbA0BcGecOo9J1HXa-34">
          <mxGeometry relative="1" as="geometry" />
        </mxCell>
        <mxCell id="CqbCbA0BcGecOo9J1HXa-54" value="" style="edgeStyle=orthogonalEdgeStyle;rounded=0;orthogonalLoop=1;jettySize=auto;html=1;endArrow=none;endFill=0;" edge="1" parent="1" source="JOHRK77XorqaOlhDgyeb-2" target="CqbCbA0BcGecOo9J1HXa-36">
          <mxGeometry relative="1" as="geometry" />
        </mxCell>
        <mxCell id="CqbCbA0BcGecOo9J1HXa-58" value="" style="edgeStyle=orthogonalEdgeStyle;rounded=0;orthogonalLoop=1;jettySize=auto;html=1;" edge="1" parent="1" source="JOHRK77XorqaOlhDgyeb-2" target="CqbCbA0BcGecOo9J1HXa-38">
          <mxGeometry relative="1" as="geometry" />
        </mxCell>
        <mxCell id="JOHRK77XorqaOlhDgyeb-2" value="&lt;div&gt;CLIENTES&lt;/div&gt;" style="rounded=0;whiteSpace=wrap;html=1;" parent="1" vertex="1">
          <mxGeometry x="480" y="460" width="120" height="60" as="geometry" />
        </mxCell>
        <mxCell id="CqbCbA0BcGecOo9J1HXa-41" value="" style="edgeStyle=orthogonalEdgeStyle;rounded=0;orthogonalLoop=1;jettySize=auto;html=1;verticalAlign=bottom;endArrow=none;endFill=0;" edge="1" parent="1" source="JOHRK77XorqaOlhDgyeb-3" target="CqbCbA0BcGecOo9J1HXa-15">
          <mxGeometry relative="1" as="geometry">
            <Array as="points">
              <mxPoint x="210" y="135" />
              <mxPoint x="170" y="135" />
            </Array>
          </mxGeometry>
        </mxCell>
        <mxCell id="CqbCbA0BcGecOo9J1HXa-43" value="" style="edgeStyle=orthogonalEdgeStyle;rounded=0;orthogonalLoop=1;jettySize=auto;html=1;" edge="1" parent="1" source="JOHRK77XorqaOlhDgyeb-3" target="CqbCbA0BcGecOo9J1HXa-13">
          <mxGeometry relative="1" as="geometry" />
        </mxCell>
        <mxCell id="JOHRK77XorqaOlhDgyeb-3" value="ENTRENADOR" style="rounded=0;whiteSpace=wrap;html=1;" parent="1" vertex="1">
          <mxGeometry x="150" y="160" width="120" height="60" as="geometry" />
        </mxCell>
        <mxCell id="CqbCbA0BcGecOo9J1HXa-47" value="" style="edgeStyle=orthogonalEdgeStyle;rounded=0;orthogonalLoop=1;jettySize=auto;html=1;endArrow=none;endFill=0;" edge="1" parent="1" source="JOHRK77XorqaOlhDgyeb-5" target="CqbCbA0BcGecOo9J1HXa-31">
          <mxGeometry relative="1" as="geometry" />
        </mxCell>
        <mxCell id="CqbCbA0BcGecOo9J1HXa-48" value="" style="edgeStyle=orthogonalEdgeStyle;rounded=0;orthogonalLoop=1;jettySize=auto;html=1;dashed=1;endArrow=none;endFill=0;" edge="1" parent="1" source="JOHRK77XorqaOlhDgyeb-5" target="CqbCbA0BcGecOo9J1HXa-33">
          <mxGeometry relative="1" as="geometry" />
        </mxCell>
        <mxCell id="CqbCbA0BcGecOo9J1HXa-49" value="" style="edgeStyle=orthogonalEdgeStyle;rounded=0;orthogonalLoop=1;jettySize=auto;html=1;" edge="1" parent="1" source="JOHRK77XorqaOlhDgyeb-5" target="CqbCbA0BcGecOo9J1HXa-10">
          <mxGeometry relative="1" as="geometry" />
        </mxCell>
        <mxCell id="JOHRK77XorqaOlhDgyeb-5" value="CURSOS" style="whiteSpace=wrap;html=1;" parent="1" vertex="1">
          <mxGeometry x="50" y="460" width="120" height="60" as="geometry" />
        </mxCell>
        <mxCell id="CqbCbA0BcGecOo9J1HXa-44" value="" style="edgeStyle=orthogonalEdgeStyle;rounded=0;orthogonalLoop=1;jettySize=auto;html=1;endArrow=none;endFill=0;" edge="1" parent="1" source="JOHRK77XorqaOlhDgyeb-9" target="JOHRK77XorqaOlhDgyeb-3">
          <mxGeometry relative="1" as="geometry" />
        </mxCell>
        <mxCell id="JOHRK77XorqaOlhDgyeb-9" value="nombre" style="ellipse;whiteSpace=wrap;html=1;" parent="1" vertex="1">
          <mxGeometry x="310" y="150" width="100" height="40" as="geometry" />
        </mxCell>
        <mxCell id="CqbCbA0BcGecOo9J1HXa-42" value="" style="edgeStyle=orthogonalEdgeStyle;rounded=0;orthogonalLoop=1;jettySize=auto;html=1;entryX=0.75;entryY=0;entryDx=0;entryDy=0;endArrow=none;endFill=0;" edge="1" parent="1" source="JOHRK77XorqaOlhDgyeb-10" target="JOHRK77XorqaOlhDgyeb-3">
          <mxGeometry relative="1" as="geometry" />
        </mxCell>
        <mxCell id="JOHRK77XorqaOlhDgyeb-10" value="&lt;u&gt;&lt;span&gt;dni&lt;/span&gt;&lt;/u&gt;" style="ellipse;whiteSpace=wrap;html=1;fontStyle=0" parent="1" vertex="1">
          <mxGeometry x="230" y="80" width="100" height="40" as="geometry" />
        </mxCell>
        <mxCell id="CqbCbA0BcGecOo9J1HXa-10" value="tipo" style="ellipse;whiteSpace=wrap;html=1;" vertex="1" parent="1">
          <mxGeometry x="60" y="560" width="100" height="40" as="geometry" />
        </mxCell>
        <mxCell id="CqbCbA0BcGecOo9J1HXa-51" value="" style="edgeStyle=orthogonalEdgeStyle;rounded=0;orthogonalLoop=1;jettySize=auto;html=1;entryX=0.825;entryY=1.067;entryDx=0;entryDy=0;entryPerimeter=0;endArrow=none;endFill=0;" edge="1" parent="1" source="CqbCbA0BcGecOo9J1HXa-11" target="JOHRK77XorqaOlhDgyeb-5">
          <mxGeometry relative="1" as="geometry" />
        </mxCell>
        <mxCell id="CqbCbA0BcGecOo9J1HXa-11" value="nrparticipantes" style="ellipse;whiteSpace=wrap;html=1;" vertex="1" parent="1">
          <mxGeometry x="190" y="530" width="100" height="40" as="geometry" />
        </mxCell>
        <mxCell id="CqbCbA0BcGecOo9J1HXa-46" value="" style="edgeStyle=orthogonalEdgeStyle;rounded=0;orthogonalLoop=1;jettySize=auto;html=1;entryX=0;entryY=0.75;entryDx=0;entryDy=0;endArrow=none;endFill=0;" edge="1" parent="1" source="CqbCbA0BcGecOo9J1HXa-12" target="JOHRK77XorqaOlhDgyeb-3">
          <mxGeometry relative="1" as="geometry">
            <Array as="points">
              <mxPoint x="80" y="210" />
              <mxPoint x="150" y="210" />
            </Array>
          </mxGeometry>
        </mxCell>
        <mxCell id="CqbCbA0BcGecOo9J1HXa-12" value="email" style="ellipse;whiteSpace=wrap;html=1;" vertex="1" parent="1">
          <mxGeometry x="30" y="220" width="100" height="40" as="geometry" />
        </mxCell>
        <mxCell id="CqbCbA0BcGecOo9J1HXa-13" value="codcurso" style="ellipse;whiteSpace=wrap;html=1;" vertex="1" parent="1">
          <mxGeometry x="170" y="260" width="100" height="40" as="geometry" />
        </mxCell>
        <mxCell id="CqbCbA0BcGecOo9J1HXa-45" value="" style="edgeStyle=orthogonalEdgeStyle;rounded=0;orthogonalLoop=1;jettySize=auto;html=1;entryX=0.925;entryY=1;entryDx=0;entryDy=0;entryPerimeter=0;endArrow=none;endFill=0;dashed=1;" edge="1" parent="1" source="CqbCbA0BcGecOo9J1HXa-14" target="JOHRK77XorqaOlhDgyeb-3">
          <mxGeometry relative="1" as="geometry" />
        </mxCell>
        <mxCell id="CqbCbA0BcGecOo9J1HXa-14" value="tel_fijo" style="ellipse;whiteSpace=wrap;html=1;" vertex="1" parent="1">
          <mxGeometry x="310" y="220" width="100" height="40" as="geometry" />
        </mxCell>
        <mxCell id="CqbCbA0BcGecOo9J1HXa-15" value="&lt;b&gt;codentrenador&lt;/b&gt;" style="ellipse;whiteSpace=wrap;html=1;fontStyle=4" vertex="1" parent="1">
          <mxGeometry x="90" y="70" width="100" height="40" as="geometry" />
        </mxCell>
        <mxCell id="CqbCbA0BcGecOo9J1HXa-31" value="nombre" style="ellipse;whiteSpace=wrap;html=1;" vertex="1" parent="1">
          <mxGeometry x="50" y="390" width="100" height="40" as="geometry" />
        </mxCell>
        <mxCell id="CqbCbA0BcGecOo9J1HXa-52" value="" style="edgeStyle=orthogonalEdgeStyle;rounded=0;orthogonalLoop=1;jettySize=auto;html=1;endArrow=none;endFill=0;" edge="1" parent="1" source="CqbCbA0BcGecOo9J1HXa-32">
          <mxGeometry relative="1" as="geometry">
            <mxPoint x="150" y="461" as="targetPoint" />
            <Array as="points">
              <mxPoint x="150" y="420" />
              <mxPoint x="150" y="461" />
            </Array>
          </mxGeometry>
        </mxCell>
        <mxCell id="CqbCbA0BcGecOo9J1HXa-32" value="&lt;b&gt;codcurso&lt;/b&gt;" style="ellipse;whiteSpace=wrap;html=1;fontStyle=4" vertex="1" parent="1">
          <mxGeometry x="180" y="400" width="100" height="40" as="geometry" />
        </mxCell>
        <mxCell id="CqbCbA0BcGecOo9J1HXa-33" value="descripcion" style="ellipse;whiteSpace=wrap;html=1;" vertex="1" parent="1">
          <mxGeometry x="220" y="460" width="100" height="40" as="geometry" />
        </mxCell>
        <mxCell id="CqbCbA0BcGecOo9J1HXa-34" value="&lt;b&gt;codcliente&lt;/b&gt;" style="ellipse;whiteSpace=wrap;html=1;fontStyle=4" vertex="1" parent="1">
          <mxGeometry x="480" y="380" width="100" height="40" as="geometry" />
        </mxCell>
        <mxCell id="CqbCbA0BcGecOo9J1HXa-55" value="" style="edgeStyle=orthogonalEdgeStyle;rounded=0;orthogonalLoop=1;jettySize=auto;html=1;entryX=0.817;entryY=-0.017;entryDx=0;entryDy=0;entryPerimeter=0;endArrow=none;endFill=0;" edge="1" parent="1" source="CqbCbA0BcGecOo9J1HXa-35" target="JOHRK77XorqaOlhDgyeb-2">
          <mxGeometry relative="1" as="geometry" />
        </mxCell>
        <mxCell id="CqbCbA0BcGecOo9J1HXa-35" value="&lt;u&gt;&lt;span&gt;dni&lt;/span&gt;&lt;/u&gt;" style="ellipse;whiteSpace=wrap;html=1;fontStyle=0" vertex="1" parent="1">
          <mxGeometry x="620" y="400" width="100" height="40" as="geometry" />
        </mxCell>
        <mxCell id="CqbCbA0BcGecOo9J1HXa-36" value="nombre" style="ellipse;whiteSpace=wrap;html=1;" vertex="1" parent="1">
          <mxGeometry x="660" y="470" width="100" height="40" as="geometry" />
        </mxCell>
        <mxCell id="CqbCbA0BcGecOo9J1HXa-56" value="" style="edgeStyle=orthogonalEdgeStyle;rounded=0;orthogonalLoop=1;jettySize=auto;html=1;entryX=1;entryY=0.75;entryDx=0;entryDy=0;dashed=1;endArrow=none;endFill=0;" edge="1" parent="1" source="CqbCbA0BcGecOo9J1HXa-37" target="JOHRK77XorqaOlhDgyeb-2">
          <mxGeometry relative="1" as="geometry">
            <Array as="points">
              <mxPoint x="670" y="530" />
              <mxPoint x="620" y="530" />
              <mxPoint x="620" y="505" />
            </Array>
          </mxGeometry>
        </mxCell>
        <mxCell id="CqbCbA0BcGecOo9J1HXa-37" value="tel_fijo" style="ellipse;whiteSpace=wrap;html=1;" vertex="1" parent="1">
          <mxGeometry x="620" y="550" width="100" height="40" as="geometry" />
        </mxCell>
        <mxCell id="CqbCbA0BcGecOo9J1HXa-38" value="&lt;span&gt;codcurso&lt;/span&gt;" style="ellipse;whiteSpace=wrap;html=1;fontStyle=0" vertex="1" parent="1">
          <mxGeometry x="490" y="560" width="100" height="40" as="geometry" />
        </mxCell>
      </root>
    </mxGraphModel>
  </diagram>
</mxfile>
